<?xml version="1.0" encoding="utf-8"?>
<!-- Generator: Adobe Illustrator 27.0.1, SVG Export Plug-In . SVG Version: 6.00 Build 0)  -->
<svg xmlns="http://www.w3.org/2000/svg" xmlns:xlink="http://www.w3.org/1999/xlink" x="0px" y="0px"
	 viewBox="0 0 42 32.9" style="enable-background:new 0 0 42 32.9;" xml:space="preserve">
<style type="text/css">
	.st0{enable-background:new    ;}
	.st1{fill:#121212;}
</style>
<g class="st0">
	<path class="st1" d="M18.8,25.4c0,2-0.8,3.8-2.4,5.2c-1.6,1.5-3.5,2.2-5.7,2.2c-3.4,0-6.1-1.1-7.9-3.4S0,24,0,20
		c0-3.8,1.6-7.5,4.8-11.3S11.8,2,16.3,0l2.1,3.3C14.8,5,12,7,10,9.3s-3.2,5-3.5,8.3h2.6c1.9,0,3.5,0.2,4.8,0.7s2.2,1,3,1.8
		c0.7,0.8,1.2,1.6,1.5,2.5C18.7,23.5,18.8,24.4,18.8,25.4z M42,25.4c0,2-0.8,3.8-2.4,5.2s-3.5,2.2-5.7,2.2c-3.4,0-6.1-1.1-7.9-3.4
		S23.1,24,23.1,20c0-3.8,1.6-7.5,4.8-11.3S34.9,2,39.4,0l2.1,3.3c-3.5,1.7-6.3,3.7-8.3,6s-3.2,5-3.5,8.3h2.6c1.9,0,3.5,0.2,4.8,0.7
		c1.2,0.4,2.2,1,3,1.8c0.7,0.8,1.2,1.6,1.5,2.5C41.8,23.5,42,24.4,42,25.4z"/>
</g>
</svg>
